<mxfile host="app.diagrams.net" modified="2023-07-06T14:53:13.671Z" agent="Mozilla/5.0 (Windows NT 10.0; Win64; x64) AppleWebKit/537.36 (KHTML, like Gecko) Chrome/114.0.0.0 Safari/537.36" etag="8-5yEtu7FDT-KrClFFpJ" version="21.6.1" type="github">
  <diagram name="第 1 页" id="S6i5OdHXzmnlzUUQaWR8">
    <mxGraphModel dx="794" dy="523" grid="1" gridSize="10" guides="1" tooltips="1" connect="1" arrows="1" fold="1" page="1" pageScale="1" pageWidth="827" pageHeight="1169" math="0" shadow="0">
      <root>
        <mxCell id="0" />
        <mxCell id="1" parent="0" />
        <mxCell id="BR4QjCFMvTeO-Hm-pWz5-9" value="" style="rounded=0;whiteSpace=wrap;html=1;fillColor=#e3c800;fontColor=#000000;strokeColor=#B09500;" vertex="1" parent="1">
          <mxGeometry x="411" y="236" width="108" height="19" as="geometry" />
        </mxCell>
        <mxCell id="BR4QjCFMvTeO-Hm-pWz5-2" value="" style="rounded=0;whiteSpace=wrap;html=1;fillColor=#1ba1e2;fontColor=#ffffff;strokeColor=#006EAF;" vertex="1" parent="1">
          <mxGeometry x="140" y="123" width="55" height="20" as="geometry" />
        </mxCell>
        <mxCell id="BR4QjCFMvTeO-Hm-pWz5-1" value="&lt;font style=&quot;font-size: 14px;&quot; face=&quot;Times New Roman&quot;&gt;Teachers may find their initial teaching efforts stressful,&lt;/font&gt;" style="text;html=1;align=center;verticalAlign=middle;resizable=0;points=[];autosize=1;strokeColor=none;fillColor=none;" vertex="1" parent="1">
          <mxGeometry x="130" y="118" width="340" height="30" as="geometry" />
        </mxCell>
        <mxCell id="BR4QjCFMvTeO-Hm-pWz5-3" value="&lt;p style=&quot;line-height: 120%;&quot;&gt;&lt;font face=&quot;Times New Roman&quot; style=&quot;font-size: 14px;&quot;&gt;(who) entering the profession&lt;/font&gt;&lt;/p&gt;" style="text;html=1;align=center;verticalAlign=middle;resizable=0;points=[];autosize=1;strokeColor=none;fillColor=none;" vertex="1" parent="1">
          <mxGeometry x="72" y="167" width="190" height="50" as="geometry" />
        </mxCell>
        <mxCell id="BR4QjCFMvTeO-Hm-pWz5-4" value="" style="endArrow=classic;html=1;rounded=0;fillColor=#1ba1e2;strokeColor=#006EAF;" edge="1" parent="1">
          <mxGeometry width="50" height="50" relative="1" as="geometry">
            <mxPoint x="168" y="187" as="sourcePoint" />
            <mxPoint x="168" y="145" as="targetPoint" />
          </mxGeometry>
        </mxCell>
        <mxCell id="BR4QjCFMvTeO-Hm-pWz5-5" value="&lt;font style=&quot;font-size: 14px;&quot;&gt;定语从句&lt;/font&gt;" style="edgeLabel;html=1;align=center;verticalAlign=middle;resizable=0;points=[];" vertex="1" connectable="0" parent="BR4QjCFMvTeO-Hm-pWz5-4">
          <mxGeometry y="2" relative="1" as="geometry">
            <mxPoint as="offset" />
          </mxGeometry>
        </mxCell>
        <mxCell id="BR4QjCFMvTeO-Hm-pWz5-6" value="&lt;font face=&quot;Times New Roman&quot; style=&quot;font-size: 14px;&quot;&gt;but &lt;u&gt;with experience&lt;/u&gt; they &lt;u&gt;acquire&lt;/u&gt; a repertoire of teaching strategies&lt;/font&gt;" style="text;html=1;align=center;verticalAlign=middle;resizable=0;points=[];autosize=1;strokeColor=none;fillColor=none;" vertex="1" parent="1">
          <mxGeometry x="130" y="230" width="400" height="30" as="geometry" />
        </mxCell>
        <mxCell id="BR4QjCFMvTeO-Hm-pWz5-7" value="" style="endArrow=classic;startArrow=classic;html=1;rounded=0;fillColor=#e51400;strokeColor=#B20000;" edge="1" parent="1">
          <mxGeometry width="50" height="50" relative="1" as="geometry">
            <mxPoint x="130" y="247" as="sourcePoint" />
            <mxPoint x="130" y="137" as="targetPoint" />
            <Array as="points">
              <mxPoint x="10" y="190" />
            </Array>
          </mxGeometry>
        </mxCell>
        <mxCell id="BR4QjCFMvTeO-Hm-pWz5-8" value="&lt;font style=&quot;font-size: 14px;&quot;&gt;并列句&lt;/font&gt;" style="edgeLabel;html=1;align=center;verticalAlign=middle;resizable=0;points=[];" vertex="1" connectable="0" parent="BR4QjCFMvTeO-Hm-pWz5-7">
          <mxGeometry x="0.3467" y="-1" relative="1" as="geometry">
            <mxPoint as="offset" />
          </mxGeometry>
        </mxCell>
        <mxCell id="BR4QjCFMvTeO-Hm-pWz5-10" value="" style="endArrow=classic;html=1;rounded=0;fillColor=#e3c800;strokeColor=#B09500;" edge="1" parent="1">
          <mxGeometry width="50" height="50" relative="1" as="geometry">
            <mxPoint x="464.5" y="320" as="sourcePoint" />
            <mxPoint x="464.5" y="260" as="targetPoint" />
          </mxGeometry>
        </mxCell>
        <mxCell id="BR4QjCFMvTeO-Hm-pWz5-11" value="&lt;font style=&quot;font-size: 14px;&quot;&gt;定语从句&lt;/font&gt;" style="edgeLabel;html=1;align=center;verticalAlign=middle;resizable=0;points=[];" vertex="1" connectable="0" parent="BR4QjCFMvTeO-Hm-pWz5-10">
          <mxGeometry x="0.15" y="2" relative="1" as="geometry">
            <mxPoint x="1" y="1" as="offset" />
          </mxGeometry>
        </mxCell>
        <mxCell id="BR4QjCFMvTeO-Hm-pWz5-13" value="&lt;font face=&quot;Times New Roman&quot; style=&quot;font-size: 14px;&quot;&gt;that they draw on throughout their teaching.&lt;/font&gt;" style="text;html=1;align=center;verticalAlign=middle;resizable=0;points=[];autosize=1;strokeColor=none;fillColor=none;" vertex="1" parent="1">
          <mxGeometry x="330" y="312" width="270" height="30" as="geometry" />
        </mxCell>
        <mxCell id="BR4QjCFMvTeO-Hm-pWz5-17" value="" style="curved=1;endArrow=classic;html=1;rounded=0;exitX=0.181;exitY=1.05;exitDx=0;exitDy=0;exitPerimeter=0;entryX=0.451;entryY=0.983;entryDx=0;entryDy=0;entryPerimeter=0;" edge="1" parent="1">
          <mxGeometry width="50" height="50" relative="1" as="geometry">
            <mxPoint x="197.39999999999998" y="257.5" as="sourcePoint" />
            <mxPoint x="305.4000000000001" y="255.49" as="targetPoint" />
            <Array as="points">
              <mxPoint x="255" y="296" />
            </Array>
          </mxGeometry>
        </mxCell>
        <mxCell id="BR4QjCFMvTeO-Hm-pWz5-18" value="&lt;font face=&quot;Times New Roman&quot; style=&quot;font-size: 14px;&quot;&gt;介词短语修饰动词&lt;/font&gt;" style="edgeLabel;html=1;align=center;verticalAlign=middle;resizable=0;points=[];" vertex="1" connectable="0" parent="BR4QjCFMvTeO-Hm-pWz5-17">
          <mxGeometry x="-0.1976" y="11" relative="1" as="geometry">
            <mxPoint as="offset" />
          </mxGeometry>
        </mxCell>
      </root>
    </mxGraphModel>
  </diagram>
</mxfile>
